<?xml version="1.0" encoding="UTF-8" standalone="no"?>
<!-- Created with Inkscape (http://www.inkscape.org/) -->

<svg
   width="59.52298mm"
   height="59.594643mm"
   viewBox="0 0 59.52298 59.594643"
   version="1.1"
   id="svg1"
   xml:space="preserve"
   xmlns="http://www.w3.org/2000/svg"
   xmlns:svg="http://www.w3.org/2000/svg"><defs
     id="defs1" /><g
     id="layer1"
     transform="translate(189.77842,-81.662422)"><path
       id="path2"
       style="opacity:1;fill:#000000;stroke-width:1.103"
       d="m -160.01694,97.315205 -22.38416,34.213415 c 5.2901,4.88467 10.6208,7.93591 17.10696,9.15396 l 0.19844,-3.61114 c -2.35978,-0.28051 -5.9781,-1.2295 -12.91291,-6.32623 l 17.92656,-27.34769 0.0651,0.0987 0.0651,-0.0987 17.92656,27.34769 c -6.93481,5.09673 -10.55313,6.04572 -12.91291,6.32623 l 0.19844,3.61114 c 6.48616,-1.21805 11.81686,-4.26929 17.10696,-9.15396 z" /><path
       style="opacity:1;fill:#000000;stroke:none;stroke-width:1.103"
       d="m -161.65596,141.25706 3.57188,-0.15647 0.0134,-24.80418 -1.94629,-5.21661 -1.66242,5.21662 z"
       id="path3" /><path
       id="path6"
       style="opacity:1;fill:#000000;stroke:none;stroke-width:1.26097"
       d="m -160.01694,81.662414 a 29.761417,29.761417 0 0 0 -29.76149,29.761496 29.761417,29.761417 0 0 0 4.74803,16.12614 l 2.10788,-3.22202 a 26.290359,26.290359 0 0 1 -3.3848,-12.90412 26.290359,26.290359 0 0 1 26.29038,-26.29039 26.290359,26.290359 0 0 1 26.29039,26.29039 26.290359,26.290359 0 0 1 -3.38481,12.90412 l 2.10788,3.22202 a 29.761417,29.761417 0 0 0 4.74803,-16.12614 29.761417,29.761417 0 0 0 -29.76149,-29.761496 z" /></g></svg>
